<svg xmlns="http://www.w3.org/2000/svg" class="main-svg" style="background: white;" width="983.8" height="525" xmlns:xlink="http://www.w3.org/1999/xlink"><defs id="defs-e65761"><g class="clips"><clipPath class="plotclip" id="clipe65761xyplot"><rect width="788" height="345"/></clipPath><clipPath class="axesclip" id="clipe65761x"><rect x="80" y="0" width="788" height="525"/></clipPath><clipPath class="axesclip" id="clipe65761y"><rect x="0" y="100" width="983.8" height="345"/></clipPath><clipPath class="axesclip" id="clipe65761xy"><rect x="80" y="100" width="788" height="345"/></clipPath></g><g class="gradients"/><g class="patterns"/></defs><g class="bglayer"><rect class="bg" style="fill: rgb(229, 236, 246); fill-opacity: 1; stroke-width: 0;" x="80" y="100" width="788" height="345"/></g><g class="draglayer cursor-crosshair"><g class="xy"><rect class="nsewdrag drag" style="fill: transparent; pointer-events: all; stroke-width: 0;" x="80" y="100" width="788" height="345" data-subplot="xy"/><rect class="nwdrag drag cursor-nw-resize" style="fill: transparent; pointer-events: all; stroke-width: 0;" x="60" y="80" width="20" height="20" data-subplot="xy"/><rect class="nedrag drag cursor-ne-resize" style="fill: transparent; pointer-events: all; stroke-width: 0;" x="868" y="80" width="20" height="20" data-subplot="xy"/><rect class="swdrag drag cursor-sw-resize" style="fill: transparent; pointer-events: all; stroke-width: 0;" x="60" y="445" width="20" height="20" data-subplot="xy"/><rect class="sedrag drag cursor-se-resize" style="fill: transparent; pointer-events: all; stroke-width: 0;" x="868" y="445" width="20" height="20" data-subplot="xy"/><rect class="ewdrag drag cursor-ew-resize" style="fill: transparent; pointer-events: all; stroke-width: 0;" x="158.8" y="445.5" width="630.4" height="20" data-subplot="xy"/><rect class="wdrag drag cursor-w-resize" style="fill: transparent; pointer-events: all; stroke-width: 0;" x="80" y="445.5" width="78.8" height="20" data-subplot="xy"/><rect class="edrag drag cursor-e-resize" style="fill: transparent; pointer-events: all; stroke-width: 0;" x="789.2" y="445.5" width="78.8" height="20" data-subplot="xy"/><rect class="nsdrag drag cursor-ns-resize" style="fill: transparent; pointer-events: all; stroke-width: 0;" x="59.5" y="134.5" width="20" height="276" data-subplot="xy"/><rect class="sdrag drag cursor-s-resize" style="fill: transparent; pointer-events: all; stroke-width: 0;" x="59.5" y="410.5" width="20" height="34.5" data-subplot="xy"/><rect class="ndrag drag cursor-n-resize" style="fill: transparent; pointer-events: all; stroke-width: 0;" x="59.5" y="100" width="20" height="34.5" data-subplot="xy"/></g></g><g class="layer-below"><g class="imagelayer"/><g class="shapelayer"/></g><g class="cartesianlayer"><g class="subplot xy"><g class="layer-subplot"><g class="shapelayer"/><g class="imagelayer"/></g><g class="gridlayer"><g class="x"><path class="xgrid crisp" style="stroke: rgb(255, 255, 255); stroke-opacity: 1; stroke-width: 1px;" transform="translate(183.83)" d="M 0 100 v 345"/><path class="xgrid crisp" style="stroke: rgb(255, 255, 255); stroke-opacity: 1; stroke-width: 1px;" transform="translate(321.51)" d="M 0 100 v 345"/><path class="xgrid crisp" style="stroke: rgb(255, 255, 255); stroke-opacity: 1; stroke-width: 1px;" transform="translate(458.82)" d="M 0 100 v 345"/><path class="xgrid crisp" style="stroke: rgb(255, 255, 255); stroke-opacity: 1; stroke-width: 1px;" transform="translate(596.13)" d="M 0 100 v 345"/><path class="xgrid crisp" style="stroke: rgb(255, 255, 255); stroke-opacity: 1; stroke-width: 1px;" transform="translate(733.44)" d="M 0 100 v 345"/></g><g class="y"><path class="ygrid crisp" style="stroke: rgb(255, 255, 255); stroke-opacity: 1; stroke-width: 1px;" transform="translate(0 421.14)" d="M 80 0 h 788"/><path class="ygrid crisp" style="stroke: rgb(255, 255, 255); stroke-opacity: 1; stroke-width: 1px;" transform="translate(0 381.07)" d="M 80 0 h 788"/><path class="ygrid crisp" style="stroke: rgb(255, 255, 255); stroke-opacity: 1; stroke-width: 1px;" transform="translate(0 341)" d="M 80 0 h 788"/><path class="ygrid crisp" style="stroke: rgb(255, 255, 255); stroke-opacity: 1; stroke-width: 1px;" transform="translate(0 300.92)" d="M 80 0 h 788"/><path class="ygrid crisp" style="stroke: rgb(255, 255, 255); stroke-opacity: 1; stroke-width: 1px;" transform="translate(0 260.85)" d="M 80 0 h 788"/><path class="ygrid crisp" style="stroke: rgb(255, 255, 255); stroke-opacity: 1; stroke-width: 1px;" transform="translate(0 220.78)" d="M 80 0 h 788"/><path class="ygrid crisp" style="stroke: rgb(255, 255, 255); stroke-opacity: 1; stroke-width: 1px;" transform="translate(0 180.71)" d="M 80 0 h 788"/><path class="ygrid crisp" style="stroke: rgb(255, 255, 255); stroke-opacity: 1; stroke-width: 1px;" transform="translate(0 140.63)" d="M 80 0 h 788"/></g></g><g class="zerolinelayer"/><path class="xlines-below"/><path class="ylines-below"/><g class="overlines-below"/><g class="xaxislayer-below"/><g class="yaxislayer-below"/><g class="overaxes-below"/><g class="plot" clip-path="url(#clipe65761xyplot)" transform="translate(80 100)"><g class="scatterlayer mlayer"><g class="trace scatter trace558867" style="opacity: 1; stroke-miterlimit: 2;"><g class="fills"/><g class="errorbars"/><g class="lines"><path class="js-line" style="opacity: 1; fill: none; stroke: rgb(99, 110, 250); stroke-opacity: 1; stroke-width: 2px;" d="M 0 293.16 L 11.29 313.47 L 22.95 327.75 L 34.23 300.41 L 45.89 261.44 L 57.56 256.9 L 68.84 261.09 L 80.5 207.23 L 91.79 247.97 L 103.45 200.59 L 115.11 198.23 L 126.02 202.57 L 137.68 150.17 L 148.97 168.08 L 160.63 120.46 L 171.92 88.23 L 183.58 97.06 L 195.24 89.51 L 206.53 132.66 L 218.19 161.74 L 229.47 180.61 L 241.14 132.31 L 252.8 147.8 L 263.33 172.38 L 274.99 113.31 L 286.28 175.97 L 297.94 146.13 L 309.23 102.45 L 320.89 80.23 L 332.55 52.07 L 343.83 68.19 L 355.5 109.55 L 366.78 153.11 L 378.44 134.97 L 390.11 130.82 L 400.64 175.8 L 412.3 108.17 L 423.59 104.89 L 435.25 116.13 L 446.53 101.94 L 458.2 79.45 L 469.86 70.24 L 481.14 120.39 L 492.8 124.38 L 504.09 148.91 L 515.75 171.82 L 527.41 131.97 L 537.95 183.32 L 549.61 140.89 L 560.89 152.59 L 572.56 127.67 L 583.84 109.78 L 595.5 73.09 L 607.17 71.76 L 618.45 96.26 L 630.11 64.75 L 641.4 145.37 L 653.06 140.78 L 664.72 74.74 L 675.63 76.91 L 687.29 36.26"/></g><g class="points"/><g class="text"/></g><g class="trace scatter traceb2ca4a" style="opacity: 1; stroke-miterlimit: 2;"><g class="fills"/><g class="errorbars"/><g class="lines"><path class="js-line" style="opacity: 1; fill: none; stroke: rgb(239, 85, 59); stroke-opacity: 1; stroke-width: 2px;" d="M 572.56 153.3 L 583.84 117.69 L 595.5 107.03 L 607.17 72.74 L 618.45 122.31 L 630.11 107.95 L 641.4 102.39 L 653.06 169.52 L 664.72 104.15 L 675.63 125.85 L 687.29 30.27 L 698.58 69.27 L 710.24 54.26 L 721.53 40.27 L 733.19 21 L 744.85 25.33"/></g><g class="points"><path class="point" style="opacity: 1; fill: rgb(239, 85, 59); fill-opacity: 1; stroke-width: 0px;" transform="translate(572.56 153.3)" d="M 3 0 A 3 3 0 1 1 0 -3 A 3 3 0 0 1 3 0 Z"/><path class="point" style="opacity: 1; fill: rgb(239, 85, 59); fill-opacity: 1; stroke-width: 0px;" transform="translate(583.84 117.69)" d="M 3 0 A 3 3 0 1 1 0 -3 A 3 3 0 0 1 3 0 Z"/><path class="point" style="opacity: 1; fill: rgb(239, 85, 59); fill-opacity: 1; stroke-width: 0px;" transform="translate(595.5 107.03)" d="M 3 0 A 3 3 0 1 1 0 -3 A 3 3 0 0 1 3 0 Z"/><path class="point" style="opacity: 1; fill: rgb(239, 85, 59); fill-opacity: 1; stroke-width: 0px;" transform="translate(607.17 72.74)" d="M 3 0 A 3 3 0 1 1 0 -3 A 3 3 0 0 1 3 0 Z"/><path class="point" style="opacity: 1; fill: rgb(239, 85, 59); fill-opacity: 1; stroke-width: 0px;" transform="translate(618.45 122.31)" d="M 3 0 A 3 3 0 1 1 0 -3 A 3 3 0 0 1 3 0 Z"/><path class="point" style="opacity: 1; fill: rgb(239, 85, 59); fill-opacity: 1; stroke-width: 0px;" transform="translate(630.11 107.95)" d="M 3 0 A 3 3 0 1 1 0 -3 A 3 3 0 0 1 3 0 Z"/><path class="point" style="opacity: 1; fill: rgb(239, 85, 59); fill-opacity: 1; stroke-width: 0px;" transform="translate(641.4 102.39)" d="M 3 0 A 3 3 0 1 1 0 -3 A 3 3 0 0 1 3 0 Z"/><path class="point" style="opacity: 1; fill: rgb(239, 85, 59); fill-opacity: 1; stroke-width: 0px;" transform="translate(653.06 169.52)" d="M 3 0 A 3 3 0 1 1 0 -3 A 3 3 0 0 1 3 0 Z"/><path class="point" style="opacity: 1; fill: rgb(239, 85, 59); fill-opacity: 1; stroke-width: 0px;" transform="translate(664.72 104.15)" d="M 3 0 A 3 3 0 1 1 0 -3 A 3 3 0 0 1 3 0 Z"/><path class="point" style="opacity: 1; fill: rgb(239, 85, 59); fill-opacity: 1; stroke-width: 0px;" transform="translate(675.63 125.85)" d="M 3 0 A 3 3 0 1 1 0 -3 A 3 3 0 0 1 3 0 Z"/><path class="point" style="opacity: 1; fill: rgb(239, 85, 59); fill-opacity: 1; stroke-width: 0px;" transform="translate(687.29 30.27)" d="M 3 0 A 3 3 0 1 1 0 -3 A 3 3 0 0 1 3 0 Z"/><path class="point" style="opacity: 1; fill: rgb(239, 85, 59); fill-opacity: 1; stroke-width: 0px;" transform="translate(698.58 69.27)" d="M 3 0 A 3 3 0 1 1 0 -3 A 3 3 0 0 1 3 0 Z"/><path class="point" style="opacity: 1; fill: rgb(239, 85, 59); fill-opacity: 1; stroke-width: 0px;" transform="translate(710.24 54.26)" d="M 3 0 A 3 3 0 1 1 0 -3 A 3 3 0 0 1 3 0 Z"/><path class="point" style="opacity: 1; fill: rgb(239, 85, 59); fill-opacity: 1; stroke-width: 0px;" transform="translate(721.53 40.27)" d="M 3 0 A 3 3 0 1 1 0 -3 A 3 3 0 0 1 3 0 Z"/><path class="point" style="opacity: 1; fill: rgb(239, 85, 59); fill-opacity: 1; stroke-width: 0px;" transform="translate(733.19 21)" d="M 3 0 A 3 3 0 1 1 0 -3 A 3 3 0 0 1 3 0 Z"/><path class="point" style="opacity: 1; fill: rgb(239, 85, 59); fill-opacity: 1; stroke-width: 0px;" transform="translate(744.85 25.33)" d="M 3 0 A 3 3 0 1 1 0 -3 A 3 3 0 0 1 3 0 Z"/></g><g class="text"/></g></g></g><g class="overplot"/><path class="xlines-above crisp" style="fill: none;" d="M 0 0"/><path class="ylines-above crisp" style="fill: none;" d="M 0 0"/><g class="overlines-above"/><g class="xaxislayer-above"><g class="xtick"><text style="font-family: &quot;Open Sans&quot;,verdana,arial,sans-serif; font-size: 12px; white-space: pre; opacity: 1; fill: rgb(42, 63, 95); fill-opacity: 1;" text-anchor="middle" transform="translate(183.83)" x="0" y="458" data-unformatted="2012" data-math="N">2012</text></g><g class="xtick"><text style="font-family: &quot;Open Sans&quot;,verdana,arial,sans-serif; font-size: 12px; white-space: pre; opacity: 1; fill: rgb(42, 63, 95); fill-opacity: 1;" text-anchor="middle" transform="translate(321.51)" x="0" y="458" data-unformatted="2013" data-math="N">2013</text></g><g class="xtick"><text style="font-family: &quot;Open Sans&quot;,verdana,arial,sans-serif; font-size: 12px; white-space: pre; opacity: 1; fill: rgb(42, 63, 95); fill-opacity: 1;" text-anchor="middle" transform="translate(458.82)" x="0" y="458" data-unformatted="2014" data-math="N">2014</text></g><g class="xtick"><text style="font-family: &quot;Open Sans&quot;,verdana,arial,sans-serif; font-size: 12px; white-space: pre; opacity: 1; fill: rgb(42, 63, 95); fill-opacity: 1;" text-anchor="middle" transform="translate(596.13)" x="0" y="458" data-unformatted="2015" data-math="N">2015</text></g><g class="xtick"><text style="font-family: &quot;Open Sans&quot;,verdana,arial,sans-serif; font-size: 12px; white-space: pre; opacity: 1; fill: rgb(42, 63, 95); fill-opacity: 1;" text-anchor="middle" transform="translate(733.44)" x="0" y="458" data-unformatted="2016" data-math="N">2016</text></g></g><g class="yaxislayer-above"><g class="ytick"><text style="font-family: &quot;Open Sans&quot;,verdana,arial,sans-serif; font-size: 12px; white-space: pre; opacity: 1; fill: rgb(42, 63, 95); fill-opacity: 1;" text-anchor="end" transform="translate(0 421.14)" x="79" y="4.2" data-unformatted="500k" data-math="N">500k</text></g><g class="ytick"><text style="font-family: &quot;Open Sans&quot;,verdana,arial,sans-serif; font-size: 12px; white-space: pre; opacity: 1; fill: rgb(42, 63, 95); fill-opacity: 1;" text-anchor="end" transform="translate(0 381.07)" x="79" y="4.2" data-unformatted="550k" data-math="N">550k</text></g><g class="ytick"><text style="font-family: &quot;Open Sans&quot;,verdana,arial,sans-serif; font-size: 12px; white-space: pre; opacity: 1; fill: rgb(42, 63, 95); fill-opacity: 1;" text-anchor="end" transform="translate(0 341)" x="79" y="4.2" data-unformatted="600k" data-math="N">600k</text></g><g class="ytick"><text style="font-family: &quot;Open Sans&quot;,verdana,arial,sans-serif; font-size: 12px; white-space: pre; opacity: 1; fill: rgb(42, 63, 95); fill-opacity: 1;" text-anchor="end" transform="translate(0 300.92)" x="79" y="4.2" data-unformatted="650k" data-math="N">650k</text></g><g class="ytick"><text style="font-family: &quot;Open Sans&quot;,verdana,arial,sans-serif; font-size: 12px; white-space: pre; opacity: 1; fill: rgb(42, 63, 95); fill-opacity: 1;" text-anchor="end" transform="translate(0 260.85)" x="79" y="4.2" data-unformatted="700k" data-math="N">700k</text></g><g class="ytick"><text style="font-family: &quot;Open Sans&quot;,verdana,arial,sans-serif; font-size: 12px; white-space: pre; opacity: 1; fill: rgb(42, 63, 95); fill-opacity: 1;" text-anchor="end" transform="translate(0 220.78)" x="79" y="4.2" data-unformatted="750k" data-math="N">750k</text></g><g class="ytick"><text style="font-family: &quot;Open Sans&quot;,verdana,arial,sans-serif; font-size: 12px; white-space: pre; opacity: 1; fill: rgb(42, 63, 95); fill-opacity: 1;" text-anchor="end" transform="translate(0 180.71)" x="79" y="4.2" data-unformatted="800k" data-math="N">800k</text></g><g class="ytick"><text style="font-family: &quot;Open Sans&quot;,verdana,arial,sans-serif; font-size: 12px; white-space: pre; opacity: 1; fill: rgb(42, 63, 95); fill-opacity: 1;" text-anchor="end" transform="translate(0 140.63)" x="79" y="4.2" data-unformatted="850k" data-math="N">850k</text></g><g class="ytick"><text style="font-family: &quot;Open Sans&quot;,verdana,arial,sans-serif; font-size: 12px; white-space: pre; opacity: 1; fill: rgb(42, 63, 95); fill-opacity: 1;" text-anchor="end" transform="translate(0 100.56)" x="79" y="4.2" data-unformatted="900k" data-math="N">900k</text></g></g><g class="overaxes-above"/></g></g><g class="polarlayer"/><g class="ternarylayer"/><g class="geolayer"/><g class="funnelarealayer"/><g class="pielayer"/><g class="iciclelayer"/><g class="treemaplayer"/><g class="sunburstlayer"/><g class="glimages"/></svg>