<svg xmlns="http://www.w3.org/2000/svg" class="main-svg" style="background: white;" width="983.8" height="525" xmlns:xlink="http://www.w3.org/1999/xlink"><defs id="defs-349545"><g class="clips"><clipPath class="plotclip" id="clip349545xyplot"><rect width="788" height="345"/></clipPath><clipPath class="axesclip" id="clip349545x"><rect x="80" y="0" width="788" height="525"/></clipPath><clipPath class="axesclip" id="clip349545y"><rect x="0" y="100" width="983.8" height="345"/></clipPath><clipPath class="axesclip" id="clip349545xy"><rect x="80" y="100" width="788" height="345"/></clipPath></g><g class="gradients"/><g class="patterns"/></defs><g class="bglayer"><rect class="bg" style="fill: rgb(229, 236, 246); fill-opacity: 1; stroke-width: 0;" x="80" y="100" width="788" height="345"/></g><g class="draglayer cursor-crosshair"><g class="xy"><rect class="nsewdrag drag" style="fill: transparent; pointer-events: all; stroke-width: 0;" x="80" y="100" width="788" height="345" data-subplot="xy"/><rect class="nwdrag drag cursor-nw-resize" style="fill: transparent; pointer-events: all; stroke-width: 0;" x="60" y="80" width="20" height="20" data-subplot="xy"/><rect class="nedrag drag cursor-ne-resize" style="fill: transparent; pointer-events: all; stroke-width: 0;" x="868" y="80" width="20" height="20" data-subplot="xy"/><rect class="swdrag drag cursor-sw-resize" style="fill: transparent; pointer-events: all; stroke-width: 0;" x="60" y="445" width="20" height="20" data-subplot="xy"/><rect class="sedrag drag cursor-se-resize" style="fill: transparent; pointer-events: all; stroke-width: 0;" x="868" y="445" width="20" height="20" data-subplot="xy"/><rect class="ewdrag drag cursor-ew-resize" style="fill: transparent; pointer-events: all; stroke-width: 0;" x="158.8" y="445.5" width="630.4" height="20" data-subplot="xy"/><rect class="wdrag drag cursor-w-resize" style="fill: transparent; pointer-events: all; stroke-width: 0;" x="80" y="445.5" width="78.8" height="20" data-subplot="xy"/><rect class="edrag drag cursor-e-resize" style="fill: transparent; pointer-events: all; stroke-width: 0;" x="789.2" y="445.5" width="78.8" height="20" data-subplot="xy"/><rect class="nsdrag drag cursor-ns-resize" style="fill: transparent; pointer-events: all; stroke-width: 0;" x="59.5" y="134.5" width="20" height="276" data-subplot="xy"/><rect class="sdrag drag cursor-s-resize" style="fill: transparent; pointer-events: all; stroke-width: 0;" x="59.5" y="410.5" width="20" height="34.5" data-subplot="xy"/><rect class="ndrag drag cursor-n-resize" style="fill: transparent; pointer-events: all; stroke-width: 0;" x="59.5" y="100" width="20" height="34.5" data-subplot="xy"/></g></g><g class="layer-below"><g class="imagelayer"/><g class="shapelayer"/></g><g class="cartesianlayer"><g class="subplot xy"><g class="layer-subplot"><g class="shapelayer"/><g class="imagelayer"/></g><g class="gridlayer"><g class="x"><path class="xgrid crisp" style="stroke: rgb(255, 255, 255); stroke-opacity: 1; stroke-width: 1px;" transform="translate(182.28)" d="M 0 100 v 345"/><path class="xgrid crisp" style="stroke: rgb(255, 255, 255); stroke-opacity: 1; stroke-width: 1px;" transform="translate(317.91)" d="M 0 100 v 345"/><path class="xgrid crisp" style="stroke: rgb(255, 255, 255); stroke-opacity: 1; stroke-width: 1px;" transform="translate(453.17)" d="M 0 100 v 345"/><path class="xgrid crisp" style="stroke: rgb(255, 255, 255); stroke-opacity: 1; stroke-width: 1px;" transform="translate(588.42)" d="M 0 100 v 345"/><path class="xgrid crisp" style="stroke: rgb(255, 255, 255); stroke-opacity: 1; stroke-width: 1px;" transform="translate(723.68)" d="M 0 100 v 345"/><path class="xgrid crisp" style="stroke: rgb(255, 255, 255); stroke-opacity: 1; stroke-width: 1px;" transform="translate(859.31)" d="M 0 100 v 345"/></g><g class="y"><path class="ygrid crisp" style="stroke: rgb(255, 255, 255); stroke-opacity: 1; stroke-width: 1px;" transform="translate(0 429.64)" d="M 80 0 h 788"/><path class="ygrid crisp" style="stroke: rgb(255, 255, 255); stroke-opacity: 1; stroke-width: 1px;" transform="translate(0 375.99)" d="M 80 0 h 788"/><path class="ygrid crisp" style="stroke: rgb(255, 255, 255); stroke-opacity: 1; stroke-width: 1px;" transform="translate(0 322.34)" d="M 80 0 h 788"/><path class="ygrid crisp" style="stroke: rgb(255, 255, 255); stroke-opacity: 1; stroke-width: 1px;" transform="translate(0 268.7)" d="M 80 0 h 788"/><path class="ygrid crisp" style="stroke: rgb(255, 255, 255); stroke-opacity: 1; stroke-width: 1px;" transform="translate(0 215.05)" d="M 80 0 h 788"/><path class="ygrid crisp" style="stroke: rgb(255, 255, 255); stroke-opacity: 1; stroke-width: 1px;" transform="translate(0 161.4)" d="M 80 0 h 788"/><path class="ygrid crisp" style="stroke: rgb(255, 255, 255); stroke-opacity: 1; stroke-width: 1px;" transform="translate(0 107.75)" d="M 80 0 h 788"/></g></g><g class="zerolinelayer"/><path class="xlines-below"/><path class="ylines-below"/><g class="overlines-below"/><g class="xaxislayer-below"/><g class="yaxislayer-below"/><g class="overaxes-below"/><g class="plot" clip-path="url(#clip349545xyplot)" transform="translate(80 100)"><g class="scatterlayer mlayer"><g class="trace scatter trace780c17" style="opacity: 1; stroke-miterlimit: 2;"><g class="fills"/><g class="errorbars"/><g class="lines"><path class="js-line" style="opacity: 1; fill: none; stroke: rgb(99, 110, 250); stroke-opacity: 1; stroke-width: 2px;" d="M 0 256.19 L 11.12 242.74 L 22.6 236.22 L 33.72 251.74 L 45.21 223.57 L 56.7 249.29 L 67.81 279.44 L 79.3 231.27 L 90.42 274.25 L 101.91 236.31 L 113.4 260.5 L 124.14 264.09 L 135.63 230.36 L 146.75 251.86 L 158.23 287.33 L 169.35 216.62 L 180.84 254.32 L 192.33 305.22 L 203.44 306.28 L 214.93 302.02 L 226.05 327.75 L 237.54 306.41 L 249.02 278.16 L 259.4 214.7 L 270.89 187.29 L 282.01 155.3 L 293.49 145.16 L 304.61 113.77 L 316.1 151.84 L 327.59 149.55 L 338.7 197.4 L 350.19 111.26 L 361.31 142.53 L 372.8 134.17 L 384.28 153.64 L 394.66 211.7 L 406.15 165.67 L 417.26 196.54 L 428.75 169.67 L 451.36 179.07 L 462.84 176.02 L 473.96 216.49 L 485.45 140.55 L 496.57 170.33 L 508.05 157.37 L 519.54 151.82 L 529.92 151.43 L 541.41 96.8 L 552.52 107.69 L 564.01 61.44 L 575.13 105.16 L 586.62 67.07 L 598.1 54.41 L 609.22 90.73 L 620.71 17.25 L 631.83 63.31 L 643.31 37.1 L 654.8 74.53 L 665.55 99.28 L 677.04 81.57"/></g><g class="points"/><g class="text"/></g><g class="trace scatter tracedd818e" style="opacity: 1; stroke-miterlimit: 2;"><g class="fills"/><g class="errorbars"/><g class="lines"><path class="js-line" style="opacity: 1; fill: none; stroke: rgb(239, 85, 59); stroke-opacity: 1; stroke-width: 2px;" d="M 575.13 66.3 L 586.62 61.38 L 598.1 92 L 609.22 124.82 L 620.71 55.78 L 631.83 80.32 L 643.31 57.85 L 654.8 64.85 L 665.55 68.83 L 677.04 48.23 L 688.15 80.67 L 699.64 87.87 L 710.76 119.18 L 722.25 147.33 L 733.73 184.02 L 744.85 250.71"/></g><g class="points"><path class="point" style="opacity: 1; fill: rgb(239, 85, 59); fill-opacity: 1; stroke-width: 0px;" transform="translate(575.13 66.3)" d="M 3 0 A 3 3 0 1 1 0 -3 A 3 3 0 0 1 3 0 Z"/><path class="point" style="opacity: 1; fill: rgb(239, 85, 59); fill-opacity: 1; stroke-width: 0px;" transform="translate(586.62 61.38)" d="M 3 0 A 3 3 0 1 1 0 -3 A 3 3 0 0 1 3 0 Z"/><path class="point" style="opacity: 1; fill: rgb(239, 85, 59); fill-opacity: 1; stroke-width: 0px;" transform="translate(598.1 92)" d="M 3 0 A 3 3 0 1 1 0 -3 A 3 3 0 0 1 3 0 Z"/><path class="point" style="opacity: 1; fill: rgb(239, 85, 59); fill-opacity: 1; stroke-width: 0px;" transform="translate(609.22 124.82)" d="M 3 0 A 3 3 0 1 1 0 -3 A 3 3 0 0 1 3 0 Z"/><path class="point" style="opacity: 1; fill: rgb(239, 85, 59); fill-opacity: 1; stroke-width: 0px;" transform="translate(620.71 55.78)" d="M 3 0 A 3 3 0 1 1 0 -3 A 3 3 0 0 1 3 0 Z"/><path class="point" style="opacity: 1; fill: rgb(239, 85, 59); fill-opacity: 1; stroke-width: 0px;" transform="translate(631.83 80.32)" d="M 3 0 A 3 3 0 1 1 0 -3 A 3 3 0 0 1 3 0 Z"/><path class="point" style="opacity: 1; fill: rgb(239, 85, 59); fill-opacity: 1; stroke-width: 0px;" transform="translate(643.31 57.85)" d="M 3 0 A 3 3 0 1 1 0 -3 A 3 3 0 0 1 3 0 Z"/><path class="point" style="opacity: 1; fill: rgb(239, 85, 59); fill-opacity: 1; stroke-width: 0px;" transform="translate(654.8 64.85)" d="M 3 0 A 3 3 0 1 1 0 -3 A 3 3 0 0 1 3 0 Z"/><path class="point" style="opacity: 1; fill: rgb(239, 85, 59); fill-opacity: 1; stroke-width: 0px;" transform="translate(665.55 68.83)" d="M 3 0 A 3 3 0 1 1 0 -3 A 3 3 0 0 1 3 0 Z"/><path class="point" style="opacity: 1; fill: rgb(239, 85, 59); fill-opacity: 1; stroke-width: 0px;" transform="translate(677.04 48.23)" d="M 3 0 A 3 3 0 1 1 0 -3 A 3 3 0 0 1 3 0 Z"/><path class="point" style="opacity: 1; fill: rgb(239, 85, 59); fill-opacity: 1; stroke-width: 0px;" transform="translate(688.15 80.67)" d="M 3 0 A 3 3 0 1 1 0 -3 A 3 3 0 0 1 3 0 Z"/><path class="point" style="opacity: 1; fill: rgb(239, 85, 59); fill-opacity: 1; stroke-width: 0px;" transform="translate(699.64 87.87)" d="M 3 0 A 3 3 0 1 1 0 -3 A 3 3 0 0 1 3 0 Z"/><path class="point" style="opacity: 1; fill: rgb(239, 85, 59); fill-opacity: 1; stroke-width: 0px;" transform="translate(710.76 119.18)" d="M 3 0 A 3 3 0 1 1 0 -3 A 3 3 0 0 1 3 0 Z"/><path class="point" style="opacity: 1; fill: rgb(239, 85, 59); fill-opacity: 1; stroke-width: 0px;" transform="translate(722.25 147.33)" d="M 3 0 A 3 3 0 1 1 0 -3 A 3 3 0 0 1 3 0 Z"/><path class="point" style="opacity: 1; fill: rgb(239, 85, 59); fill-opacity: 1; stroke-width: 0px;" transform="translate(733.73 184.02)" d="M 3 0 A 3 3 0 1 1 0 -3 A 3 3 0 0 1 3 0 Z"/><path class="point" style="opacity: 1; fill: rgb(239, 85, 59); fill-opacity: 1; stroke-width: 0px;" transform="translate(744.85 250.71)" d="M 3 0 A 3 3 0 1 1 0 -3 A 3 3 0 0 1 3 0 Z"/></g><g class="text"/></g></g></g><g class="overplot"/><path class="xlines-above crisp" style="fill: none;" d="M 0 0"/><path class="ylines-above crisp" style="fill: none;" d="M 0 0"/><g class="overlines-above"/><g class="xaxislayer-above"><g class="xtick"><text style="font-family: &quot;Open Sans&quot;,verdana,arial,sans-serif; font-size: 12px; white-space: pre; opacity: 1; fill: rgb(42, 63, 95); fill-opacity: 1;" text-anchor="middle" transform="translate(182.28)" x="0" y="458" data-unformatted="2012" data-math="N">2012</text></g><g class="xtick"><text style="font-family: &quot;Open Sans&quot;,verdana,arial,sans-serif; font-size: 12px; white-space: pre; opacity: 1; fill: rgb(42, 63, 95); fill-opacity: 1;" text-anchor="middle" transform="translate(317.91)" x="0" y="458" data-unformatted="2013" data-math="N">2013</text></g><g class="xtick"><text style="font-family: &quot;Open Sans&quot;,verdana,arial,sans-serif; font-size: 12px; white-space: pre; opacity: 1; fill: rgb(42, 63, 95); fill-opacity: 1;" text-anchor="middle" transform="translate(453.17)" x="0" y="458" data-unformatted="2014" data-math="N">2014</text></g><g class="xtick"><text style="font-family: &quot;Open Sans&quot;,verdana,arial,sans-serif; font-size: 12px; white-space: pre; opacity: 1; fill: rgb(42, 63, 95); fill-opacity: 1;" text-anchor="middle" transform="translate(588.42)" x="0" y="458" data-unformatted="2015" data-math="N">2015</text></g><g class="xtick"><text style="font-family: &quot;Open Sans&quot;,verdana,arial,sans-serif; font-size: 12px; white-space: pre; opacity: 1; fill: rgb(42, 63, 95); fill-opacity: 1;" text-anchor="middle" transform="translate(723.68)" x="0" y="458" data-unformatted="2016" data-math="N">2016</text></g><g class="xtick"><text style="font-family: &quot;Open Sans&quot;,verdana,arial,sans-serif; font-size: 12px; white-space: pre; opacity: 1; fill: rgb(42, 63, 95); fill-opacity: 1;" text-anchor="middle" transform="translate(859.31)" x="0" y="458" data-unformatted="2017" data-math="N">2017</text></g></g><g class="yaxislayer-above"><g class="ytick"><text style="font-family: &quot;Open Sans&quot;,verdana,arial,sans-serif; font-size: 12px; white-space: pre; opacity: 1; fill: rgb(42, 63, 95); fill-opacity: 1;" text-anchor="end" transform="translate(0 429.64)" x="79" y="4.2" data-unformatted="70k" data-math="N">70k</text></g><g class="ytick"><text style="font-family: &quot;Open Sans&quot;,verdana,arial,sans-serif; font-size: 12px; white-space: pre; opacity: 1; fill: rgb(42, 63, 95); fill-opacity: 1;" text-anchor="end" transform="translate(0 375.99)" x="79" y="4.2" data-unformatted="80k" data-math="N">80k</text></g><g class="ytick"><text style="font-family: &quot;Open Sans&quot;,verdana,arial,sans-serif; font-size: 12px; white-space: pre; opacity: 1; fill: rgb(42, 63, 95); fill-opacity: 1;" text-anchor="end" transform="translate(0 322.34)" x="79" y="4.2" data-unformatted="90k" data-math="N">90k</text></g><g class="ytick"><text style="font-family: &quot;Open Sans&quot;,verdana,arial,sans-serif; font-size: 12px; white-space: pre; opacity: 1; fill: rgb(42, 63, 95); fill-opacity: 1;" text-anchor="end" transform="translate(0 268.7)" x="79" y="4.2" data-unformatted="100k" data-math="N">100k</text></g><g class="ytick"><text style="font-family: &quot;Open Sans&quot;,verdana,arial,sans-serif; font-size: 12px; white-space: pre; opacity: 1; fill: rgb(42, 63, 95); fill-opacity: 1;" text-anchor="end" transform="translate(0 215.05)" x="79" y="4.2" data-unformatted="110k" data-math="N">110k</text></g><g class="ytick"><text style="font-family: &quot;Open Sans&quot;,verdana,arial,sans-serif; font-size: 12px; white-space: pre; opacity: 1; fill: rgb(42, 63, 95); fill-opacity: 1;" text-anchor="end" transform="translate(0 161.4)" x="79" y="4.2" data-unformatted="120k" data-math="N">120k</text></g><g class="ytick"><text style="font-family: &quot;Open Sans&quot;,verdana,arial,sans-serif; font-size: 12px; white-space: pre; opacity: 1; fill: rgb(42, 63, 95); fill-opacity: 1;" text-anchor="end" transform="translate(0 107.75)" x="79" y="4.2" data-unformatted="130k" data-math="N">130k</text></g></g><g class="overaxes-above"/></g></g><g class="polarlayer"/><g class="ternarylayer"/><g class="geolayer"/><g class="funnelarealayer"/><g class="pielayer"/><g class="iciclelayer"/><g class="treemaplayer"/><g class="sunburstlayer"/><g class="glimages"/></svg>