<svg xmlns="http://www.w3.org/2000/svg" class="main-svg" style="background: white;" width="983.8" height="525" xmlns:xlink="http://www.w3.org/1999/xlink"><defs id="defs-8b940b"><g class="clips"><clipPath class="plotclip" id="clip8b940bxyplot"><rect width="788" height="345"/></clipPath><clipPath class="axesclip" id="clip8b940bx"><rect x="80" y="0" width="788" height="525"/></clipPath><clipPath class="axesclip" id="clip8b940by"><rect x="0" y="100" width="983.8" height="345"/></clipPath><clipPath class="axesclip" id="clip8b940bxy"><rect x="80" y="100" width="788" height="345"/></clipPath></g><g class="gradients"/><g class="patterns"/></defs><g class="bglayer"><rect class="bg" style="fill: rgb(229, 236, 246); fill-opacity: 1; stroke-width: 0;" x="80" y="100" width="788" height="345"/></g><g class="draglayer cursor-crosshair"><g class="xy"><rect class="nsewdrag drag" style="fill: transparent; pointer-events: all; stroke-width: 0;" x="80" y="100" width="788" height="345" data-subplot="xy"/><rect class="nwdrag drag cursor-nw-resize" style="fill: transparent; pointer-events: all; stroke-width: 0;" x="60" y="80" width="20" height="20" data-subplot="xy"/><rect class="nedrag drag cursor-ne-resize" style="fill: transparent; pointer-events: all; stroke-width: 0;" x="868" y="80" width="20" height="20" data-subplot="xy"/><rect class="swdrag drag cursor-sw-resize" style="fill: transparent; pointer-events: all; stroke-width: 0;" x="60" y="445" width="20" height="20" data-subplot="xy"/><rect class="sedrag drag cursor-se-resize" style="fill: transparent; pointer-events: all; stroke-width: 0;" x="868" y="445" width="20" height="20" data-subplot="xy"/><rect class="ewdrag drag cursor-ew-resize" style="fill: transparent; pointer-events: all; stroke-width: 0;" x="158.8" y="445.5" width="630.4" height="20" data-subplot="xy"/><rect class="wdrag drag cursor-w-resize" style="fill: transparent; pointer-events: all; stroke-width: 0;" x="80" y="445.5" width="78.8" height="20" data-subplot="xy"/><rect class="edrag drag cursor-e-resize" style="fill: transparent; pointer-events: all; stroke-width: 0;" x="789.2" y="445.5" width="78.8" height="20" data-subplot="xy"/><rect class="nsdrag drag cursor-ns-resize" style="fill: transparent; pointer-events: all; stroke-width: 0;" x="59.5" y="134.5" width="20" height="276" data-subplot="xy"/><rect class="sdrag drag cursor-s-resize" style="fill: transparent; pointer-events: all; stroke-width: 0;" x="59.5" y="410.5" width="20" height="34.5" data-subplot="xy"/><rect class="ndrag drag cursor-n-resize" style="fill: transparent; pointer-events: all; stroke-width: 0;" x="59.5" y="100" width="20" height="34.5" data-subplot="xy"/></g></g><g class="layer-below"><g class="imagelayer"/><g class="shapelayer"/></g><g class="cartesianlayer"><g class="subplot xy"><g class="layer-subplot"><g class="shapelayer"/><g class="imagelayer"/></g><g class="gridlayer"><g class="x"><path class="xgrid crisp" style="stroke: rgb(255, 255, 255); stroke-opacity: 1; stroke-width: 1px;" transform="translate(183.83)" d="M 0 100 v 345"/><path class="xgrid crisp" style="stroke: rgb(255, 255, 255); stroke-opacity: 1; stroke-width: 1px;" transform="translate(321.51)" d="M 0 100 v 345"/><path class="xgrid crisp" style="stroke: rgb(255, 255, 255); stroke-opacity: 1; stroke-width: 1px;" transform="translate(458.82)" d="M 0 100 v 345"/><path class="xgrid crisp" style="stroke: rgb(255, 255, 255); stroke-opacity: 1; stroke-width: 1px;" transform="translate(596.13)" d="M 0 100 v 345"/><path class="xgrid crisp" style="stroke: rgb(255, 255, 255); stroke-opacity: 1; stroke-width: 1px;" transform="translate(733.44)" d="M 0 100 v 345"/></g><g class="y"><path class="ygrid crisp" style="stroke: rgb(255, 255, 255); stroke-opacity: 1; stroke-width: 1px;" transform="translate(0 412.15)" d="M 80 0 h 788"/><path class="ygrid crisp" style="stroke: rgb(255, 255, 255); stroke-opacity: 1; stroke-width: 1px;" transform="translate(0 330.93)" d="M 80 0 h 788"/><path class="ygrid crisp" style="stroke: rgb(255, 255, 255); stroke-opacity: 1; stroke-width: 1px;" transform="translate(0 249.71)" d="M 80 0 h 788"/><path class="ygrid crisp" style="stroke: rgb(255, 255, 255); stroke-opacity: 1; stroke-width: 1px;" transform="translate(0 168.49)" d="M 80 0 h 788"/></g></g><g class="zerolinelayer"/><path class="xlines-below"/><path class="ylines-below"/><g class="overlines-below"/><g class="xaxislayer-below"/><g class="yaxislayer-below"/><g class="overaxes-below"/><g class="plot" clip-path="url(#clip8b940bxyplot)" transform="translate(80 100)"><g class="scatterlayer mlayer"><g class="trace scatter trace43c9c3" style="opacity: 1; stroke-miterlimit: 2;"><g class="fills"/><g class="errorbars"/><g class="lines"><path class="js-line" style="opacity: 1; fill: none; stroke: rgb(99, 110, 250); stroke-opacity: 1; stroke-width: 2px;" d="M 0 320.33 L 11.29 325.23 L 22.95 327.75 L 34.23 323.52 L 45.89 303.13 L 57.56 294.99 L 68.84 296.88 L 80.5 283.27 L 91.79 309.77 L 103.45 312.97 L 115.11 300.57 L 126.02 283.19 L 137.68 255.2 L 148.97 280.66 L 160.63 280.54 L 171.92 208.3 L 183.58 203.09 L 195.24 167.24 L 206.53 141.86 L 218.19 178.51 L 229.47 206.6 L 241.14 197.62 L 252.8 210.34 L 263.33 176.31 L 274.99 130.69 L 286.28 149.06 L 297.94 146.58 L 309.23 145.67 L 320.89 140.39 L 332.55 124.51 L 343.83 139.57 L 355.5 150.02 L 366.78 181.77 L 378.44 205.26 L 390.11 203.75 L 412.3 137.68 L 423.59 166.51 L 435.25 170.05 L 446.53 170 L 458.2 146.26 L 469.86 113.32 L 481.14 154.85 L 492.8 145.94 L 504.09 171.68 L 515.75 190.29 L 527.41 159.56 L 537.95 138.83 L 549.61 98.67 L 560.89 114.37 L 572.56 82.11 L 583.84 100.93 L 595.5 62.48 L 607.17 32.96 L 618.45 78.59 L 630.11 68.01 L 641.4 109.08 L 653.06 106.4 L 664.72 84.26 L 675.63 76.21 L 687.29 61.91"/></g><g class="points"/><g class="text"/></g><g class="trace scatter tracef42049" style="opacity: 1; stroke-miterlimit: 2;"><g class="fills"/><g class="errorbars"/><g class="lines"><path class="js-line" style="opacity: 1; fill: none; stroke: rgb(239, 85, 59); stroke-opacity: 1; stroke-width: 2px;" d="M 572.56 119.67 L 583.84 81.58 L 595.5 84.21 L 607.17 38.49 L 618.45 64.64 L 630.11 79.02 L 641.4 98.38 L 653.06 127.67 L 664.72 90.73 L 675.63 63.28 L 687.29 37.17 L 698.58 81.49 L 710.24 63.49 L 721.53 76.32 L 733.19 47.54 L 744.85 21"/></g><g class="points"><path class="point" style="opacity: 1; fill: rgb(239, 85, 59); fill-opacity: 1; stroke-width: 0px;" transform="translate(572.56 119.67)" d="M 3 0 A 3 3 0 1 1 0 -3 A 3 3 0 0 1 3 0 Z"/><path class="point" style="opacity: 1; fill: rgb(239, 85, 59); fill-opacity: 1; stroke-width: 0px;" transform="translate(583.84 81.58)" d="M 3 0 A 3 3 0 1 1 0 -3 A 3 3 0 0 1 3 0 Z"/><path class="point" style="opacity: 1; fill: rgb(239, 85, 59); fill-opacity: 1; stroke-width: 0px;" transform="translate(595.5 84.21)" d="M 3 0 A 3 3 0 1 1 0 -3 A 3 3 0 0 1 3 0 Z"/><path class="point" style="opacity: 1; fill: rgb(239, 85, 59); fill-opacity: 1; stroke-width: 0px;" transform="translate(607.17 38.49)" d="M 3 0 A 3 3 0 1 1 0 -3 A 3 3 0 0 1 3 0 Z"/><path class="point" style="opacity: 1; fill: rgb(239, 85, 59); fill-opacity: 1; stroke-width: 0px;" transform="translate(618.45 64.64)" d="M 3 0 A 3 3 0 1 1 0 -3 A 3 3 0 0 1 3 0 Z"/><path class="point" style="opacity: 1; fill: rgb(239, 85, 59); fill-opacity: 1; stroke-width: 0px;" transform="translate(630.11 79.02)" d="M 3 0 A 3 3 0 1 1 0 -3 A 3 3 0 0 1 3 0 Z"/><path class="point" style="opacity: 1; fill: rgb(239, 85, 59); fill-opacity: 1; stroke-width: 0px;" transform="translate(641.4 98.38)" d="M 3 0 A 3 3 0 1 1 0 -3 A 3 3 0 0 1 3 0 Z"/><path class="point" style="opacity: 1; fill: rgb(239, 85, 59); fill-opacity: 1; stroke-width: 0px;" transform="translate(653.06 127.67)" d="M 3 0 A 3 3 0 1 1 0 -3 A 3 3 0 0 1 3 0 Z"/><path class="point" style="opacity: 1; fill: rgb(239, 85, 59); fill-opacity: 1; stroke-width: 0px;" transform="translate(664.72 90.73)" d="M 3 0 A 3 3 0 1 1 0 -3 A 3 3 0 0 1 3 0 Z"/><path class="point" style="opacity: 1; fill: rgb(239, 85, 59); fill-opacity: 1; stroke-width: 0px;" transform="translate(675.63 63.28)" d="M 3 0 A 3 3 0 1 1 0 -3 A 3 3 0 0 1 3 0 Z"/><path class="point" style="opacity: 1; fill: rgb(239, 85, 59); fill-opacity: 1; stroke-width: 0px;" transform="translate(687.29 37.17)" d="M 3 0 A 3 3 0 1 1 0 -3 A 3 3 0 0 1 3 0 Z"/><path class="point" style="opacity: 1; fill: rgb(239, 85, 59); fill-opacity: 1; stroke-width: 0px;" transform="translate(698.58 81.49)" d="M 3 0 A 3 3 0 1 1 0 -3 A 3 3 0 0 1 3 0 Z"/><path class="point" style="opacity: 1; fill: rgb(239, 85, 59); fill-opacity: 1; stroke-width: 0px;" transform="translate(710.24 63.49)" d="M 3 0 A 3 3 0 1 1 0 -3 A 3 3 0 0 1 3 0 Z"/><path class="point" style="opacity: 1; fill: rgb(239, 85, 59); fill-opacity: 1; stroke-width: 0px;" transform="translate(721.53 76.32)" d="M 3 0 A 3 3 0 1 1 0 -3 A 3 3 0 0 1 3 0 Z"/><path class="point" style="opacity: 1; fill: rgb(239, 85, 59); fill-opacity: 1; stroke-width: 0px;" transform="translate(733.19 47.54)" d="M 3 0 A 3 3 0 1 1 0 -3 A 3 3 0 0 1 3 0 Z"/><path class="point" style="opacity: 1; fill: rgb(239, 85, 59); fill-opacity: 1; stroke-width: 0px;" transform="translate(744.85 21)" d="M 3 0 A 3 3 0 1 1 0 -3 A 3 3 0 0 1 3 0 Z"/></g><g class="text"/></g></g></g><g class="overplot"/><path class="xlines-above crisp" style="fill: none;" d="M 0 0"/><path class="ylines-above crisp" style="fill: none;" d="M 0 0"/><g class="overlines-above"/><g class="xaxislayer-above"><g class="xtick"><text style="font-family: &quot;Open Sans&quot;,verdana,arial,sans-serif; font-size: 12px; white-space: pre; opacity: 1; fill: rgb(42, 63, 95); fill-opacity: 1;" text-anchor="middle" transform="translate(183.83)" x="0" y="458" data-unformatted="2012" data-math="N">2012</text></g><g class="xtick"><text style="font-family: &quot;Open Sans&quot;,verdana,arial,sans-serif; font-size: 12px; white-space: pre; opacity: 1; fill: rgb(42, 63, 95); fill-opacity: 1;" text-anchor="middle" transform="translate(321.51)" x="0" y="458" data-unformatted="2013" data-math="N">2013</text></g><g class="xtick"><text style="font-family: &quot;Open Sans&quot;,verdana,arial,sans-serif; font-size: 12px; white-space: pre; opacity: 1; fill: rgb(42, 63, 95); fill-opacity: 1;" text-anchor="middle" transform="translate(458.82)" x="0" y="458" data-unformatted="2014" data-math="N">2014</text></g><g class="xtick"><text style="font-family: &quot;Open Sans&quot;,verdana,arial,sans-serif; font-size: 12px; white-space: pre; opacity: 1; fill: rgb(42, 63, 95); fill-opacity: 1;" text-anchor="middle" transform="translate(596.13)" x="0" y="458" data-unformatted="2015" data-math="N">2015</text></g><g class="xtick"><text style="font-family: &quot;Open Sans&quot;,verdana,arial,sans-serif; font-size: 12px; white-space: pre; opacity: 1; fill: rgb(42, 63, 95); fill-opacity: 1;" text-anchor="middle" transform="translate(733.44)" x="0" y="458" data-unformatted="2016" data-math="N">2016</text></g></g><g class="yaxislayer-above"><g class="ytick"><text style="font-family: &quot;Open Sans&quot;,verdana,arial,sans-serif; font-size: 12px; white-space: pre; opacity: 1; fill: rgb(42, 63, 95); fill-opacity: 1;" text-anchor="end" transform="translate(0 412.15)" x="79" y="4.2" data-unformatted="150k" data-math="N">150k</text></g><g class="ytick"><text style="font-family: &quot;Open Sans&quot;,verdana,arial,sans-serif; font-size: 12px; white-space: pre; opacity: 1; fill: rgb(42, 63, 95); fill-opacity: 1;" text-anchor="end" transform="translate(0 330.93)" x="79" y="4.2" data-unformatted="200k" data-math="N">200k</text></g><g class="ytick"><text style="font-family: &quot;Open Sans&quot;,verdana,arial,sans-serif; font-size: 12px; white-space: pre; opacity: 1; fill: rgb(42, 63, 95); fill-opacity: 1;" text-anchor="end" transform="translate(0 249.71)" x="79" y="4.2" data-unformatted="250k" data-math="N">250k</text></g><g class="ytick"><text style="font-family: &quot;Open Sans&quot;,verdana,arial,sans-serif; font-size: 12px; white-space: pre; opacity: 1; fill: rgb(42, 63, 95); fill-opacity: 1;" text-anchor="end" transform="translate(0 168.49)" x="79" y="4.2" data-unformatted="300k" data-math="N">300k</text></g></g><g class="overaxes-above"/></g></g><g class="polarlayer"/><g class="ternarylayer"/><g class="geolayer"/><g class="funnelarealayer"/><g class="pielayer"/><g class="iciclelayer"/><g class="treemaplayer"/><g class="sunburstlayer"/><g class="glimages"/></svg>